<svg id="Layer_1" data-name="Layer 1" xmlns="http://www.w3.org/2000/svg" viewBox="0 0 2253.7 1112.96"><defs><style>.cls-1{fill:#fff;}.cls-2{fill:#090b46;}.cls-3{fill:#83c6f3;}</style></defs><title>SVG</title><rect class="cls-1" width="2253.7" height="1112.96"/><path class="cls-2" d="M60.81,847.22,156.37,604.7h66.88l94.86,242.52-67.9,7.5-20.13-58.27H149.21l-20.5,58.27Zm129-187.59L162.18,746.3h54.93Z" transform="translate(0.3 6.11)"/><path class="cls-2" d="M329,853.44V604.7h90.78q36.82,0,56.29,11.24a67,67,0,0,1,27,27q9.54,17.44,9.55,39.63,0,45.78-43,62.84l55.26,101.48-68.23,7.83L395.23,740.16V848Zm66.2-193.81V734h11.25q17.07,0,28.85-10.75c7.83-7.17,11.78-16.22,11.78-27.13q0-17.42-10.92-27c-7.3-6.36-17.63-9.55-31.07-9.55Z" transform="translate(0.3 6.11)"/><path class="cls-2" d="M709.18,604.7l10.25,66.54a70.9,70.9,0,0,0-40.6-10.92q-33.12,0-53.57,18.75t-20.5,49.49q0,30.36,19.8,49.15t52.91,18.74a74.22,74.22,0,0,0,20.3-2.72q9.71-2.7,22.69-9.55l-8.2,65.87q-25.95,6.12-44.71,6.14-56.65,0-94.86-36.52t-38.22-90.78q0-54.57,38.55-91.78t95.89-37.19q10.26,0,38.58,4.42Z" transform="translate(0.3 6.11)"/><path class="cls-2" d="M718.76,664.74l15-60H896.19v61.07H842V848l-66.2,5.44V664.74Z" transform="translate(0.3 6.11)"/><path class="cls-2" d="M915,853.44V607.09l66.21-4.78V848Z" transform="translate(0.3 6.11)"/><path class="cls-2" d="M1183.17,604.7l10.25,66.54a80.58,80.58,0,0,0-19.44-8.53,81.52,81.52,0,0,0-21.16-2.39q-33.12,0-53.57,18.75t-20.49,49.49q0,30.36,19.8,49.15t52.9,18.74a74.17,74.17,0,0,0,20.3-2.72,119.15,119.15,0,0,0,22.69-9.55l-8.19,65.87q-26,6.12-44.71,6.14-56.65,0-94.87-36.52t-38.21-90.78q0-54.57,38.54-91.78t95.9-37.19q10.24,0,38.57,4.42Z" transform="translate(0.3 6.11)"/><path class="cls-2" d="M1485.52,604.7l10.24,66.54a80.58,80.58,0,0,0-19.44-8.53,81.52,81.52,0,0,0-21.16-2.39q-33.12,0-53.57,18.75t-20.49,49.49q0,30.36,19.8,49.15t52.9,18.74a74.17,74.17,0,0,0,20.3-2.72,119.15,119.15,0,0,0,22.69-9.55l-8.19,65.87q-25.95,6.12-44.71,6.14-56.66,0-94.87-36.52t-38.21-90.78q0-54.57,38.55-91.78t95.89-37.19q10.24,0,38.57,4.42Z" transform="translate(0.3 6.11)"/><path class="cls-2" d="M1520.31,853.44V607.09l66.21-4.78v92.11h74V607.09l66.2-4.78V848l-66.2,5.44v-102h-74V848Z" transform="translate(0.3 6.11)"/><path class="cls-2" d="M1760.23,853.44V607.09l66.2-4.78V848Z" transform="translate(0.3 6.11)"/><path class="cls-2" d="M1859.87,850.72V607.09l66.2-4.78v190.4h87.37l-13,58Z" transform="translate(0.3 6.11)"/><path class="cls-2" d="M2029.46,850.72V607.09l66.21-4.78v190.4H2183l-13,58Z" transform="translate(0.3 6.11)"/><path class="cls-2" d="M1351.4,284.72c-17.3-3.38-32.83-10.81-49.56-15.7-8.73-2.55-17.85-2.72-26.27,1-29.15,13-27.84,54.69-25.12,80.7.74,7,11.83,7.09,11.08,0-2.22-21.27-5.75-65.48,22.87-72.05,9.72-2.24,18.41,2.7,27.19,6a227.22,227.22,0,0,0,36.87,10.66C1355.42,296.76,1358.41,286.09,1351.4,284.72Z" transform="translate(0.3 6.11)"/><path class="cls-2" d="M1437.69,349.36a9.53,9.53,0,0,0,4.93-1.22c2.25-1.31,3.72-3.58,4.37-6.75a16.27,16.27,0,0,0-4.66-15.64,19.6,19.6,0,0,0-18.75-4.07c-12.54,3.58-13.24,18.2-13.27,18.82l-.15,4,4-.15c4.11-.16,8.58,1.27,12.95,2.67C1430.84,348.21,1434.46,349.36,1437.69,349.36Z" transform="translate(0.3 6.11)"/><path class="cls-2" d="M1286,335.12c15.42-3,34.69-23.44,34.69-23.44-30.83-11.95-44.32-16-42.4-6.7S1270.63,338.07,1286,335.12Z" transform="translate(0.3 6.11)"/><path class="cls-2" d="M1560.37,371.06c-8-11.73-19.31-23.1-25-36.1-4.71-10.75-4-22.82-9.06-33.5a110.54,110.54,0,0,0-6.9-12.22c3-14.89,2.36-33.46-15.19-37.94-8.43-2.15-18.26-.68-26.31,2.4a5.8,5.8,0,0,0-2.05,1.29c-25.47-8.93-55.62-8.7-86.85-13.12-63.25-9-119.46,3.6-179.27,22.67-41.76,13.32-82.48,5.09-125,12.29l-.37.08c-17.09.6-34.09,3.77-50.35,7.79-34.08,8.67-66.69,18.23-100.26,25.61-33.3,8.07-67.05,14.77-100.85,21.54-34,6.19-67.9,12-102.07,19l-24,5.06c-75,8.94-148.23,24.95-208.16,73.13-6.25,5-12.2,10.33-18,15.81a252.44,252.44,0,0,0-32.86,34.36c-5.44,7.14-11,14.17-15.36,22-2.29,3.84-4.68,7.62-6.87,11.5l-5.76,12.11c-7.28,16.25-12.89,33.35-14.3,51.11l2.28.36c11.81-32.41,31.12-60.84,53.63-85.58,5.2-6.58,11.93-11.81,17.77-17.77,5.69-6.16,12.66-11,19.05-16.38,3.28-2.61,6.42-5.37,9.81-7.85l10.35-7.2c7-4.59,13.38-10.23,20.87-14.21,7.21-4.4,14.36-8.95,21.54-13.54,7.37-4.24,15.06-7.95,22.61-12,13.63-7.92,28.57-12.94,43.33-18.44C680.51,370.31,738,366,795.54,359c35.92-4.37,71.32-9.23,106.22-16.5,12.64-2.46,25.24-5.12,37.76-8.32,34-8.61,67.48-20.14,99.62-32.09,16.15-5.73,32.11-10.7,48.76-13.6s33.86-3.36,51.27-3.89l0-.22c32.25-.63,57.77-4.21,90.54-14.79,31.07-10,62.45-18,95.2-19.75,36.21-2,71.19,5.42,107,8.95,25.3,2.48,46.93,2.14,65.17,21.45,14,14.82,18.25,29,24.19,46.92,6.44,19.46,20.75,33.79,31.46,50.49-5.41-1-14-1.31-26.51,2.22-23.12,6.55-17.82,27.26-17.34,34s10.6,9.64,20.23,11.08,8.67,8.19,6.74,15.42-24.56,13.49-44.8,6.74-39.5-6.26-45.28-1,3.37,2.87,19.27,3.84,17.71,2.9,36.8,8.2,26.31,1.93,35.46-2.41L1541,454a136.18,136.18,0,0,1-39.37,24.36c-24.3,9.74-45.44,22-67.4,36.48q-15.37,10.15-30.84,20c-55.64,35.32-127.08,38.11-183.88,4.68q-4.11-2.41-8.22-5.1s50.38,49.83,41.31,127.3c-5,23.92-8.3,51.21-6.7,78.32,12.67-97.14,79.12-140.11,79.12-140.11h0a274.12,274.12,0,0,1,30.38-22.39h0c3.49-1.88,6.92-3.78,10.24-5.71,36.37-21.09,69.81-46.84,106.2-67.8,36.76-21.18,91.16-31.37,101.29-79.8C1577.81,402,1573,389.66,1560.37,371.06Zm-69.56-109.28a31.56,31.56,0,0,1,8-.24c9,1,11.27,7.89,11.11,15.41A78.84,78.84,0,0,0,1490.81,261.78Zm66.43,172.68a28.44,28.44,0,0,0-4.51-.37c-7.22,0-7.22-8.66,1.93-15.16,4.16-3,7.18-4.47,9.49-5.88A49.92,49.92,0,0,1,1557.24,434.46Z" transform="translate(0.3 6.11)"/><path class="cls-2" d="M406.21,945.41a39.1,39.1,0,0,0-4.6-19.07,32.15,32.15,0,0,0-13-13q-9.36-5.42-27.1-5.42H317.84v119.73l31.87-2.62v-51.9l29.56,55.13,32.84-3.77-26.6-48.84Q406.21,967.46,406.21,945.41ZM369,965a19.86,19.86,0,0,1-13.89,5.17h-5.41V934.37h4.75q9.71,0,15,4.6t5.25,13A17,17,0,0,1,369,965Z" transform="translate(0.3 6.11)"/><polygon class="cls-2" points="485.51 984.18 517.22 984.18 517.22 960.2 485.51 960.2 485.51 940.48 529.37 940.48 523.13 914.04 453.65 914.04 453.65 1032.46 525.43 1032.46 531.99 1006.02 485.51 1006.02 485.51 984.18"/><polygon class="cls-2" points="643.86 941.97 636.96 914.04 575.69 914.04 575.69 1033.77 607.55 1031.15 607.55 989.93 633.5 989.93 633.5 964.46 607.55 964.46 607.55 941.97 643.86 941.97"/><path class="cls-2" d="M772.32,945.41a39.1,39.1,0,0,0-4.59-19.07,32.27,32.27,0,0,0-13-13q-9.37-5.42-27.1-5.42H684v119.73l31.86-2.62v-51.9l29.57,55.13,32.84-3.77-26.6-48.84Q772.33,967.46,772.32,945.41ZM735.12,965a19.82,19.82,0,0,1-13.88,5.17h-5.42V934.37h4.76c6.47,0,11.44,1.54,15,4.6s5.25,7.39,5.25,13A17,17,0,0,1,735.12,965Z" transform="translate(0.3 6.11)"/><polygon class="cls-2" points="819.76 1033.77 851.63 1031.15 851.63 912.89 819.76 915.19 819.76 1033.77"/><path class="cls-2" d="M950.37,979.87h24.31v17.58a31.6,31.6,0,0,1-14,3.11q-14,0-23-9.53t-9-24.14a32.27,32.27,0,0,1,8.95-23.07,29.26,29.26,0,0,1,22.09-9.45,40.64,40.64,0,0,1,13.55,2.46,36,36,0,0,1,11.42,6.24l16.26-24a83.94,83.94,0,0,0-20-10.34,65,65,0,0,0-20.54-3.12q-26.28,0-44.68,18.06t-18.39,43.54a59.27,59.27,0,0,0,4.93,23.07,63.06,63.06,0,0,0,13.38,20.29,58.56,58.56,0,0,0,20.77,13.3,71.93,71.93,0,0,0,26.12,4.76q24,0,41.56-11.5V958h-48Z" transform="translate(0.3 6.11)"/><polygon class="cls-2" points="1085.03 984.18 1116.73 984.18 1116.73 960.2 1085.03 960.2 1085.03 940.48 1128.89 940.48 1122.64 914.04 1053.16 914.04 1053.16 1032.46 1124.94 1032.46 1131.51 1006.02 1085.03 1006.02 1085.03 984.18"/><path class="cls-2" d="M1263.27,945.41a39.1,39.1,0,0,0-4.59-19.07,32.27,32.27,0,0,0-13-13q-9.37-5.42-27.1-5.42h-43.69v119.73l31.86-2.62v-51.9l29.57,55.13,32.84-3.77-26.6-48.84Q1263.28,967.46,1263.27,945.41Zm-37.2,19.6a19.82,19.82,0,0,1-13.88,5.17h-5.42V934.37h4.76c6.47,0,11.44,1.54,15,4.6s5.25,7.39,5.25,13A17,17,0,0,1,1226.07,965Z" transform="translate(0.3 6.11)"/><path class="cls-2" d="M1345.56,907.93l-46,116.73,32.69,3.61,9.86-28H1381l9.7,28,32.68-3.61-45.66-116.73Zm2.79,68.16,13.3-41.72,13.14,41.72Z" transform="translate(0.3 6.11)"/><polygon class="cls-2" points="1439.97 942.94 1467.4 942.94 1467.4 1033.77 1499.27 1031.15 1499.27 943.44 1525.37 943.44 1525.37 914.04 1447.18 914.04 1439.97 942.94"/><polygon class="cls-2" points="1567.26 1033.77 1599.13 1031.15 1599.13 912.89 1567.26 915.19 1567.26 1033.77"/><path class="cls-2" d="M1707.41,905.79q-27.11,0-44.84,17.41t-17.74,44q0,26.6,17.74,44t44.84,17.41q26.92,0,44.67-17.41t17.74-44q0-26.62-17.74-44T1707.41,905.79ZM1729.59,991a29.53,29.53,0,0,1-22.35,9.53A29.2,29.2,0,0,1,1685,991q-8.94-9.6-8.94-23.72t9-23.66a30.77,30.77,0,0,1,44.53,0q9,9.52,9,23.66T1729.59,991Z" transform="translate(0.3 6.11)"/><polygon class="cls-2" points="1895.27 915.19 1895.27 984 1845.17 914.04 1816.26 914.04 1816.26 1033.77 1847.31 1031.15 1847.31 962.5 1897.57 1032.46 1926.31 1032.46 1926.31 912.89 1895.27 915.19"/><path class="cls-3" d="M1082.76,261.6c18.94-3.11,36.83-3.44,54.13-3.76,23.64-.43,46-.84,68.17-7.92,40.85-13,89.68-26.36,142-26.36a316.47,316.47,0,0,1,44.07,3.1c9.7,1.38,19.48,2.31,29,3.21,19.17,1.81,37.39,3.54,54.64,8.64a65,65,0,0,1,20.86-3.59,50.33,50.33,0,0,1,12.4,1.5c20.76,5.31,30.77,23.66,27.46,49.63,1.73,3,3.26,5.84,4.68,8.81,3.51,7.36,4.85,14.69,6,21.16.87,4.75,1.69,9.23,3.24,12.77,2.93,6.71,8.25,13.47,13.89,20.62,3.29,4.19,6.7,8.53,9.76,13,14.22,21,20.84,37.52,15.11,64.91-9.25,44.19-47.19,61.26-80.67,76.31-10.1,4.54-19.63,8.83-28,13.65-17.93,10.33-35.64,22.19-52.77,33.67-13.19,8.83-26.72,17.89-40.62,26.45h338.34a379.67,379.67,0,0,0,20.18-122.23c0-210-170.27-380.32-380.31-380.32-142.49,0-266.59,78.41-331.74,194.37C1051.59,264.71,1067.65,262.22,1082.76,261.6Z" transform="translate(0.3 6.11)"/></svg>